<?xml version="1.0" standalone="no"?>
<!DOCTYPE svg PUBLIC "-//W3C//DTD SVG 1.1//EN" "http://www.w3.org/Graphics/SVG/1.1/DTD/svg11.dtd">
<svg version="1.1" width="1200" height="342" onload="init(evt)" viewBox="0 0 1200 342" xmlns="http://www.w3.org/2000/svg" xmlns:xlink="http://www.w3.org/1999/xlink">
<!-- Flame graph stack visualization. See https://github.com/brendangregg/FlameGraph for latest version, and http://www.brendangregg.com/flamegraphs.html for examples. -->
<!-- NOTES:  -->
<defs>
	<linearGradient id="background" y1="0" y2="1" x1="0" x2="0" >
		<stop stop-color="#eeeeee" offset="5%" />
		<stop stop-color="#eeeeb0" offset="95%" />
	</linearGradient>
</defs>
<style type="text/css">
	text { font-family:Verdana; font-size:12px; fill:rgb(0,0,0); }
	#search, #ignorecase { opacity:0.1; cursor:pointer; }
	#search:hover, #search.show, #ignorecase:hover, #ignorecase.show { opacity:1; }
	#subtitle { text-anchor:middle; font-color:rgb(160,160,160); }
	#title { text-anchor:middle; font-size:17px}
	#unzoom { cursor:pointer; }
	#frames > *:hover { stroke:black; stroke-width:0.5; cursor:pointer; }
	.hide { display:none; }
	.parent { opacity:0.5; }
</style>
<script type="text/ecmascript">
<![CDATA[
	"use strict";
	var details, searchbtn, unzoombtn, matchedtxt, svg, searching, currentSearchTerm, ignorecase, ignorecaseBtn;
	function init(evt) {
		details = document.getElementById("details").firstChild;
		searchbtn = document.getElementById("search");
		ignorecaseBtn = document.getElementById("ignorecase");
		unzoombtn = document.getElementById("unzoom");
		matchedtxt = document.getElementById("matched");
		svg = document.getElementsByTagName("svg")[0];
		searching = 0;
		currentSearchTerm = null;
	}

	window.addEventListener("click", function(e) {
		var target = find_group(e.target);
		if (target) {
			if (target.nodeName == "a") {
				if (e.ctrlKey === false) return;
				e.preventDefault();
			}
			if (target.classList.contains("parent")) unzoom();
			zoom(target);
		}
		else if (e.target.id == "unzoom") unzoom();
		else if (e.target.id == "search") search_prompt();
		else if (e.target.id == "ignorecase") toggle_ignorecase();
	}, false)

	// mouse-over for info
	// show
	window.addEventListener("mouseover", function(e) {
		var target = find_group(e.target);
		if (target) details.nodeValue = "Function: " + g_to_text(target);
	}, false)

	// clear
	window.addEventListener("mouseout", function(e) {
		var target = find_group(e.target);
		if (target) details.nodeValue = ' ';
	}, false)

	// ctrl-F for search
	window.addEventListener("keydown",function (e) {
		if (e.keyCode === 114 || (e.ctrlKey && e.keyCode === 70)) {
			e.preventDefault();
			search_prompt();
		}
	}, false)

	// ctrl-I to toggle case-sensitive search
	window.addEventListener("keydown",function (e) {
		if (e.ctrlKey && e.keyCode === 73) {
			e.preventDefault();
			toggle_ignorecase();
		}
	}, false)

	// functions
	function find_child(node, selector) {
		var children = node.querySelectorAll(selector);
		if (children.length) return children[0];
		return;
	}
	function find_group(node) {
		var parent = node.parentElement;
		if (!parent) return;
		if (parent.id == "frames") return node;
		return find_group(parent);
	}
	function orig_save(e, attr, val) {
		if (e.attributes["_orig_" + attr] != undefined) return;
		if (e.attributes[attr] == undefined) return;
		if (val == undefined) val = e.attributes[attr].value;
		e.setAttribute("_orig_" + attr, val);
	}
	function orig_load(e, attr) {
		if (e.attributes["_orig_"+attr] == undefined) return;
		e.attributes[attr].value = e.attributes["_orig_" + attr].value;
		e.removeAttribute("_orig_"+attr);
	}
	function g_to_text(e) {
		var text = find_child(e, "title").firstChild.nodeValue;
		return (text)
	}
	function g_to_func(e) {
		var func = g_to_text(e);
		// if there's any manipulation we want to do to the function
		// name before it's searched, do it here before returning.
		return (func);
	}
	function update_text(e) {
		var r = find_child(e, "rect");
		var t = find_child(e, "text");
		var w = parseFloat(r.attributes.width.value) -3;
		var txt = find_child(e, "title").textContent.replace(/\([^(]*\)$/,"");
		t.attributes.x.value = parseFloat(r.attributes.x.value) + 3;

		// Smaller than this size won't fit anything
		if (w < 2 * 12 * 0.59) {
			t.textContent = "";
			return;
		}

		t.textContent = txt;
		// Fit in full text width
		if (/^ *$/.test(txt) || t.getSubStringLength(0, txt.length) < w)
			return;

		for (var x = txt.length - 2; x > 0; x--) {
			if (t.getSubStringLength(0, x + 2) <= w) {
				t.textContent = txt.substring(0, x) + "..";
				return;
			}
		}
		t.textContent = "";
	}

	// zoom
	function zoom_reset(e) {
		if (e.attributes != undefined) {
			orig_load(e, "x");
			orig_load(e, "width");
		}
		if (e.childNodes == undefined) return;
		for (var i = 0, c = e.childNodes; i < c.length; i++) {
			zoom_reset(c[i]);
		}
	}
	function zoom_child(e, x, ratio) {
		if (e.attributes != undefined) {
			if (e.attributes.x != undefined) {
				orig_save(e, "x");
				e.attributes.x.value = (parseFloat(e.attributes.x.value) - x - 10) * ratio + 10;
				if (e.tagName == "text")
					e.attributes.x.value = find_child(e.parentNode, "rect[x]").attributes.x.value + 3;
			}
			if (e.attributes.width != undefined) {
				orig_save(e, "width");
				e.attributes.width.value = parseFloat(e.attributes.width.value) * ratio;
			}
		}

		if (e.childNodes == undefined) return;
		for (var i = 0, c = e.childNodes; i < c.length; i++) {
			zoom_child(c[i], x - 10, ratio);
		}
	}
	function zoom_parent(e) {
		if (e.attributes) {
			if (e.attributes.x != undefined) {
				orig_save(e, "x");
				e.attributes.x.value = 10;
			}
			if (e.attributes.width != undefined) {
				orig_save(e, "width");
				e.attributes.width.value = parseInt(svg.width.baseVal.value) - (10 * 2);
			}
		}
		if (e.childNodes == undefined) return;
		for (var i = 0, c = e.childNodes; i < c.length; i++) {
			zoom_parent(c[i]);
		}
	}
	function zoom(node) {
		var attr = find_child(node, "rect").attributes;
		var width = parseFloat(attr.width.value);
		var xmin = parseFloat(attr.x.value);
		var xmax = parseFloat(xmin + width);
		var ymin = parseFloat(attr.y.value);
		var ratio = (svg.width.baseVal.value - 2 * 10) / width;

		// XXX: Workaround for JavaScript float issues (fix me)
		var fudge = 0.0001;

		unzoombtn.classList.remove("hide");

		var el = document.getElementById("frames").children;
		for (var i = 0; i < el.length; i++) {
			var e = el[i];
			var a = find_child(e, "rect").attributes;
			var ex = parseFloat(a.x.value);
			var ew = parseFloat(a.width.value);
			var upstack;
			// Is it an ancestor
			if (0 == 0) {
				upstack = parseFloat(a.y.value) > ymin;
			} else {
				upstack = parseFloat(a.y.value) < ymin;
			}
			if (upstack) {
				// Direct ancestor
				if (ex <= xmin && (ex+ew+fudge) >= xmax) {
					e.classList.add("parent");
					zoom_parent(e);
					update_text(e);
				}
				// not in current path
				else
					e.classList.add("hide");
			}
			// Children maybe
			else {
				// no common path
				if (ex < xmin || ex + fudge >= xmax) {
					e.classList.add("hide");
				}
				else {
					zoom_child(e, xmin, ratio);
					update_text(e);
				}
			}
		}
		search();
	}
	function unzoom() {
		unzoombtn.classList.add("hide");
		var el = document.getElementById("frames").children;
		for(var i = 0; i < el.length; i++) {
			el[i].classList.remove("parent");
			el[i].classList.remove("hide");
			zoom_reset(el[i]);
			update_text(el[i]);
		}
		search();
	}

	// search
	function toggle_ignorecase() {
		ignorecase = !ignorecase;
		if (ignorecase) {
			ignorecaseBtn.classList.add("show");
		} else {
			ignorecaseBtn.classList.remove("show");
		}
		reset_search();
		search();
	}
	function reset_search() {
		var el = document.querySelectorAll("#frames rect");
		for (var i = 0; i < el.length; i++) {
			orig_load(el[i], "fill")
		}
	}
	function search_prompt() {
		if (!searching) {
			var term = prompt("Enter a search term (regexp " +
			    "allowed, eg: ^ext4_)"
			    + (ignorecase ? ", ignoring case" : "")
			    + "\nPress Ctrl-i to toggle case sensitivity", "");
			if (term != null) {
				currentSearchTerm = term;
				search();
			}
		} else {
			reset_search();
			searching = 0;
			currentSearchTerm = null;
			searchbtn.classList.remove("show");
			searchbtn.firstChild.nodeValue = "Search"
			matchedtxt.classList.add("hide");
			matchedtxt.firstChild.nodeValue = ""
		}
	}
	function search(term) {
		if (currentSearchTerm === null) return;
		var term = currentSearchTerm;

		var re = new RegExp(term, ignorecase ? 'i' : '');
		var el = document.getElementById("frames").children;
		var matches = new Object();
		var maxwidth = 0;
		for (var i = 0; i < el.length; i++) {
			var e = el[i];
			var func = g_to_func(e);
			var rect = find_child(e, "rect");
			if (func == null || rect == null)
				continue;

			// Save max width. Only works as we have a root frame
			var w = parseFloat(rect.attributes.width.value);
			if (w > maxwidth)
				maxwidth = w;

			if (func.match(re)) {
				// highlight
				var x = parseFloat(rect.attributes.x.value);
				orig_save(rect, "fill");
				rect.attributes.fill.value = "rgb(230,0,230)";

				// remember matches
				if (matches[x] == undefined) {
					matches[x] = w;
				} else {
					if (w > matches[x]) {
						// overwrite with parent
						matches[x] = w;
					}
				}
				searching = 1;
			}
		}
		if (!searching)
			return;

		searchbtn.classList.add("show");
		searchbtn.firstChild.nodeValue = "Reset Search";

		// calculate percent matched, excluding vertical overlap
		var count = 0;
		var lastx = -1;
		var lastw = 0;
		var keys = Array();
		for (k in matches) {
			if (matches.hasOwnProperty(k))
				keys.push(k);
		}
		// sort the matched frames by their x location
		// ascending, then width descending
		keys.sort(function(a, b){
			return a - b;
		});
		// Step through frames saving only the biggest bottom-up frames
		// thanks to the sort order. This relies on the tree property
		// where children are always smaller than their parents.
		var fudge = 0.0001;	// JavaScript floating point
		for (var k in keys) {
			var x = parseFloat(keys[k]);
			var w = matches[keys[k]];
			if (x >= lastx + lastw - fudge) {
				count += w;
				lastx = x;
				lastw = w;
			}
		}
		// display matched percent
		matchedtxt.classList.remove("hide");
		var pct = 100 * count / maxwidth;
		if (pct != 100) pct = pct.toFixed(1)
		matchedtxt.firstChild.nodeValue = "Matched: " + pct + "%";
	}
]]>
</script>
<rect x="0.0" y="0" width="1200.0" height="342.0" fill="url(#background)"  />
<text id="title" x="600.00" y="24" >Flame Graph</text>
<text id="details" x="10.00" y="325" > </text>
<text id="unzoom" x="10.00" y="24" class="hide">Reset Zoom</text>
<text id="search" x="1090.00" y="24" >Search</text>
<text id="ignorecase" x="1174.00" y="24" >ic</text>
<text id="matched" x="1090.00" y="325" > </text>
<g id="frames">
<g >
<title>do_syscall_64 (4 samples, 2.15%)</title><rect x="1164.6" y="229" width="25.4" height="15.0" fill="rgb(205,39,14)" rx="2" ry="2" />
<text  x="1167.62" y="239.5" >d..</text>
</g>
<g >
<title>__perf_event_task_sched_in (156 samples, 83.87%)</title><rect x="130.5" y="69" width="989.7" height="15.0" fill="rgb(249,12,43)" rx="2" ry="2" />
<text  x="133.54" y="79.5" >__perf_event_task_sched_in</text>
</g>
<g >
<title>try_to_wake_up (2 samples, 1.08%)</title><rect x="1132.9" y="117" width="12.7" height="15.0" fill="rgb(219,82,54)" rx="2" ry="2" />
<text  x="1135.90" y="127.5" ></text>
</g>
<g >
<title>prep_new_page (1 samples, 0.54%)</title><rect x="41.7" y="85" width="6.4" height="15.0" fill="rgb(237,24,26)" rx="2" ry="2" />
<text  x="44.72" y="95.5" ></text>
</g>
<g >
<title>handle_mm_fault (1 samples, 0.54%)</title><rect x="41.7" y="197" width="6.4" height="15.0" fill="rgb(209,65,40)" rx="2" ry="2" />
<text  x="44.72" y="207.5" ></text>
</g>
<g >
<title>wait_for_completion (1 samples, 0.54%)</title><rect x="1145.6" y="149" width="6.3" height="15.0" fill="rgb(228,23,8)" rx="2" ry="2" />
<text  x="1148.59" y="159.5" ></text>
</g>
<g >
<title>wake_q_add (2 samples, 1.08%)</title><rect x="1120.2" y="133" width="12.7" height="15.0" fill="rgb(228,78,54)" rx="2" ry="2" />
<text  x="1123.22" y="143.5" ></text>
</g>
<g >
<title>put_prev_task_fair (2 samples, 1.08%)</title><rect x="105.2" y="149" width="12.6" height="15.0" fill="rgb(231,106,40)" rx="2" ry="2" />
<text  x="108.16" y="159.5" ></text>
</g>
<g >
<title>prepare_exit_to_usermode (1 samples, 0.54%)</title><rect x="1158.3" y="229" width="6.3" height="15.0" fill="rgb(225,115,43)" rx="2" ry="2" />
<text  x="1161.28" y="239.5" ></text>
</g>
<g >
<title>__handle_mm_fault (1 samples, 0.54%)</title><rect x="41.7" y="181" width="6.4" height="15.0" fill="rgb(246,30,48)" rx="2" ry="2" />
<text  x="44.72" y="191.5" ></text>
</g>
<g >
<title>__do_execve_file (1 samples, 0.54%)</title><rect x="35.4" y="181" width="6.3" height="15.0" fill="rgb(245,89,51)" rx="2" ry="2" />
<text  x="38.38" y="191.5" ></text>
</g>
<g >
<title>perf (4 samples, 2.15%)</title><rect x="1164.6" y="277" width="25.4" height="15.0" fill="rgb(247,84,39)" rx="2" ry="2" />
<text  x="1167.62" y="287.5" >p..</text>
</g>
<g >
<title>entry_SYSCALL_64 (1 samples, 0.54%)</title><rect x="35.4" y="245" width="6.3" height="15.0" fill="rgb(212,21,38)" rx="2" ry="2" />
<text  x="38.38" y="255.5" ></text>
</g>
<g >
<title>_dl_map_object_from_fd (1 samples, 0.54%)</title><rect x="41.7" y="245" width="6.4" height="15.0" fill="rgb(206,7,30)" rx="2" ry="2" />
<text  x="44.72" y="255.5" ></text>
</g>
<g >
<title>__intel_pmu_enable_all.constprop.0 (156 samples, 83.87%)</title><rect x="130.5" y="53" width="989.7" height="15.0" fill="rgb(249,161,10)" rx="2" ry="2" />
<text  x="133.54" y="63.5" >__intel_pmu_enable_all.constprop.0</text>
</g>
<g >
<title>native_write_msr (156 samples, 83.87%)</title><rect x="130.5" y="37" width="989.7" height="15.0" fill="rgb(216,15,9)" rx="2" ry="2" />
<text  x="133.54" y="47.5" >native_write_msr</text>
</g>
<g >
<title>alloc_pages_vma (1 samples, 0.54%)</title><rect x="41.7" y="133" width="6.4" height="15.0" fill="rgb(254,174,9)" rx="2" ry="2" />
<text  x="44.72" y="143.5" ></text>
</g>
<g >
<title>_raw_spin_unlock (1 samples, 0.54%)</title><rect x="60.8" y="165" width="6.3" height="15.0" fill="rgb(251,83,18)" rx="2" ry="2" />
<text  x="63.75" y="175.5" ></text>
</g>
<g >
<title>do_execve (1 samples, 0.54%)</title><rect x="35.4" y="197" width="6.3" height="15.0" fill="rgb(230,134,50)" rx="2" ry="2" />
<text  x="38.38" y="207.5" ></text>
</g>
<g >
<title>update_cfs_group (1 samples, 0.54%)</title><rect x="86.1" y="117" width="6.4" height="15.0" fill="rgb(236,166,42)" rx="2" ry="2" />
<text  x="89.13" y="127.5" ></text>
</g>
<g >
<title>__intel_pmu_enable_all.constprop.0 (4 samples, 2.15%)</title><rect x="1164.6" y="101" width="25.4" height="15.0" fill="rgb(220,109,32)" rx="2" ry="2" />
<text  x="1167.62" y="111.5" >_..</text>
</g>
<g >
<title>do_set_cpus_allowed (7 samples, 3.76%)</title><rect x="73.4" y="165" width="44.4" height="15.0" fill="rgb(247,157,54)" rx="2" ry="2" />
<text  x="76.44" y="175.5" >do_s..</text>
</g>
<g >
<title>malloc (1 samples, 0.54%)</title><rect x="54.4" y="261" width="6.4" height="15.0" fill="rgb(236,5,2)" rx="2" ry="2" />
<text  x="57.41" y="271.5" ></text>
</g>
<g >
<title>lobsters (182 samples, 97.85%)</title><rect x="10.0" y="277" width="1154.6" height="15.0" fill="rgb(254,125,29)" rx="2" ry="2" />
<text  x="13.00" y="287.5" >lobsters</text>
</g>
<g >
<title>_raw_spin_lock_irqsave (1 samples, 0.54%)</title><rect x="1151.9" y="165" width="6.4" height="15.0" fill="rgb(227,35,17)" rx="2" ry="2" />
<text  x="1154.94" y="175.5" ></text>
</g>
<g >
<title>do_wp_page (1 samples, 0.54%)</title><rect x="41.7" y="165" width="6.4" height="15.0" fill="rgb(247,165,42)" rx="2" ry="2" />
<text  x="44.72" y="175.5" ></text>
</g>
<g >
<title>finish_task_switch (156 samples, 83.87%)</title><rect x="130.5" y="85" width="989.7" height="15.0" fill="rgb(242,112,25)" rx="2" ry="2" />
<text  x="133.54" y="95.5" >finish_task_switch</text>
</g>
<g >
<title>do_syscall_64 (173 samples, 93.01%)</title><rect x="60.8" y="229" width="1097.5" height="15.0" fill="rgb(238,35,38)" rx="2" ry="2" />
<text  x="63.75" y="239.5" >do_syscall_64</text>
</g>
<g >
<title>cpuset_cpus_allowed (1 samples, 0.54%)</title><rect x="1151.9" y="181" width="6.4" height="15.0" fill="rgb(251,40,51)" rx="2" ry="2" />
<text  x="1154.94" y="191.5" ></text>
</g>
<g >
<title>cpu_stop_queue_work (161 samples, 86.56%)</title><rect x="124.2" y="149" width="1021.4" height="15.0" fill="rgb(237,84,0)" rx="2" ry="2" />
<text  x="127.19" y="159.5" >cpu_stop_queue_work</text>
</g>
<g >
<title>setup_arg_pages (1 samples, 0.54%)</title><rect x="35.4" y="133" width="6.3" height="15.0" fill="rgb(234,113,41)" rx="2" ry="2" />
<text  x="38.38" y="143.5" ></text>
</g>
<g >
<title>search_binary_handler.part.0 (1 samples, 0.54%)</title><rect x="35.4" y="165" width="6.3" height="15.0" fill="rgb(242,16,13)" rx="2" ry="2" />
<text  x="38.38" y="175.5" ></text>
</g>
<g >
<title>_raw_spin_unlock_irqrestore (1 samples, 0.54%)</title><rect x="67.1" y="165" width="6.3" height="15.0" fill="rgb(243,109,36)" rx="2" ry="2" />
<text  x="70.10" y="175.5" ></text>
</g>
<g >
<title>page_fault (1 samples, 0.54%)</title><rect x="41.7" y="229" width="6.4" height="15.0" fill="rgb(236,188,19)" rx="2" ry="2" />
<text  x="44.72" y="239.5" ></text>
</g>
<g >
<title>shift_arg_pages (1 samples, 0.54%)</title><rect x="35.4" y="117" width="6.3" height="15.0" fill="rgb(214,65,4)" rx="2" ry="2" />
<text  x="38.38" y="127.5" ></text>
</g>
<g >
<title>__alloc_pages_nodemask (1 samples, 0.54%)</title><rect x="41.7" y="117" width="6.4" height="15.0" fill="rgb(219,76,51)" rx="2" ry="2" />
<text  x="44.72" y="127.5" ></text>
</g>
<g >
<title>do_syscall_64 (1 samples, 0.54%)</title><rect x="35.4" y="229" width="6.3" height="15.0" fill="rgb(210,70,40)" rx="2" ry="2" />
<text  x="38.38" y="239.5" ></text>
</g>
<g >
<title>__x64_sys_execve (4 samples, 2.15%)</title><rect x="1164.6" y="213" width="25.4" height="15.0" fill="rgb(244,4,47)" rx="2" ry="2" />
<text  x="1167.62" y="223.5" >_..</text>
</g>
<g >
<title>hwloc_bitmap_last (1 samples, 0.54%)</title><rect x="48.1" y="261" width="6.3" height="15.0" fill="rgb(206,2,51)" rx="2" ry="2" />
<text  x="51.06" y="271.5" ></text>
</g>
<g >
<title>perf_event_exec (4 samples, 2.15%)</title><rect x="1164.6" y="117" width="25.4" height="15.0" fill="rgb(240,96,12)" rx="2" ry="2" />
<text  x="1167.62" y="127.5" >p..</text>
</g>
<g >
<title>enqueue_task_fair (1 samples, 0.54%)</title><rect x="98.8" y="149" width="6.4" height="15.0" fill="rgb(208,225,46)" rx="2" ry="2" />
<text  x="101.82" y="159.5" ></text>
</g>
<g >
<title>do_execve (4 samples, 2.15%)</title><rect x="1164.6" y="197" width="25.4" height="15.0" fill="rgb(251,184,10)" rx="2" ry="2" />
<text  x="1167.62" y="207.5" >d..</text>
</g>
<g >
<title>get_page_from_freelist (1 samples, 0.54%)</title><rect x="41.7" y="101" width="6.4" height="15.0" fill="rgb(224,6,42)" rx="2" ry="2" />
<text  x="44.72" y="111.5" ></text>
</g>
<g >
<title>account_entity_dequeue (2 samples, 1.08%)</title><rect x="73.4" y="117" width="12.7" height="15.0" fill="rgb(220,65,28)" rx="2" ry="2" />
<text  x="76.44" y="127.5" ></text>
</g>
<g >
<title>[unknown] (4 samples, 2.15%)</title><rect x="1164.6" y="261" width="25.4" height="15.0" fill="rgb(217,109,6)" rx="2" ry="2" />
<text  x="1167.62" y="271.5" >[..</text>
</g>
<g >
<title>search_binary_handler.part.0 (4 samples, 2.15%)</title><rect x="1164.6" y="165" width="25.4" height="15.0" fill="rgb(244,97,8)" rx="2" ry="2" />
<text  x="1167.62" y="175.5" >s..</text>
</g>
<g >
<title>setup_new_exec (4 samples, 2.15%)</title><rect x="1164.6" y="133" width="25.4" height="15.0" fill="rgb(215,151,50)" rx="2" ry="2" />
<text  x="1167.62" y="143.5" >s..</text>
</g>
<g >
<title>ttwu_do_wakeup (1 samples, 0.54%)</title><rect x="1139.2" y="101" width="6.4" height="15.0" fill="rgb(206,127,34)" rx="2" ry="2" />
<text  x="1142.25" y="111.5" ></text>
</g>
<g >
<title>put_prev_entity (2 samples, 1.08%)</title><rect x="105.2" y="133" width="12.6" height="15.0" fill="rgb(253,53,48)" rx="2" ry="2" />
<text  x="108.16" y="143.5" ></text>
</g>
<g >
<title>entry_SYSCALL_64 (4 samples, 2.15%)</title><rect x="1164.6" y="245" width="25.4" height="15.0" fill="rgb(235,4,46)" rx="2" ry="2" />
<text  x="1167.62" y="255.5" >e..</text>
</g>
<g >
<title>wp_page_copy (1 samples, 0.54%)</title><rect x="41.7" y="149" width="6.4" height="15.0" fill="rgb(217,202,51)" rx="2" ry="2" />
<text  x="44.72" y="159.5" ></text>
</g>
<g >
<title>preempt_count_add (1 samples, 0.54%)</title><rect x="1151.9" y="149" width="6.4" height="15.0" fill="rgb(244,94,45)" rx="2" ry="2" />
<text  x="1154.94" y="159.5" ></text>
</g>
<g >
<title>_raw_spin_lock_irq (1 samples, 0.54%)</title><rect x="1145.6" y="133" width="6.3" height="15.0" fill="rgb(231,102,52)" rx="2" ry="2" />
<text  x="1148.59" y="143.5" ></text>
</g>
<g >
<title>__rdl_alloc (1 samples, 0.54%)</title><rect x="22.7" y="245" width="6.3" height="15.0" fill="rgb(251,47,9)" rx="2" ry="2" />
<text  x="25.69" y="255.5" ></text>
</g>
<g >
<title>_dl_map_object (1 samples, 0.54%)</title><rect x="41.7" y="261" width="6.4" height="15.0" fill="rgb(233,25,33)" rx="2" ry="2" />
<text  x="44.72" y="271.5" ></text>
</g>
<g >
<title>enqueue_task (1 samples, 0.54%)</title><rect x="1132.9" y="101" width="6.3" height="15.0" fill="rgb(237,88,52)" rx="2" ry="2" />
<text  x="1135.90" y="111.5" ></text>
</g>
<g >
<title>__set_cpus_allowed_ptr (172 samples, 92.47%)</title><rect x="60.8" y="181" width="1091.1" height="15.0" fill="rgb(231,120,50)" rx="2" ry="2" />
<text  x="63.75" y="191.5" >__set_cpus_allowed_ptr</text>
</g>
<g >
<title>__x64_sys_sched_setaffinity (173 samples, 93.01%)</title><rect x="60.8" y="213" width="1097.5" height="15.0" fill="rgb(218,50,18)" rx="2" ry="2" />
<text  x="63.75" y="223.5" >__x64_sys_sched_setaffinity</text>
</g>
<g >
<title>_raw_spin_lock (1 samples, 0.54%)</title><rect x="35.4" y="85" width="6.3" height="15.0" fill="rgb(251,131,53)" rx="2" ry="2" />
<text  x="38.38" y="95.5" ></text>
</g>
<g >
<title>__cgroup_account_cputime (1 samples, 0.54%)</title><rect x="92.5" y="101" width="6.3" height="15.0" fill="rgb(213,54,48)" rx="2" ry="2" />
<text  x="95.47" y="111.5" ></text>
</g>
<g >
<title>__do_execve_file (4 samples, 2.15%)</title><rect x="1164.6" y="181" width="25.4" height="15.0" fill="rgb(241,205,13)" rx="2" ry="2" />
<text  x="1167.62" y="191.5" >_..</text>
</g>
<g >
<title>set_next_task_fair (1 samples, 0.54%)</title><rect x="117.8" y="165" width="6.4" height="15.0" fill="rgb(226,64,15)" rx="2" ry="2" />
<text  x="120.85" y="175.5" ></text>
</g>
<g >
<title>set_next_entity (1 samples, 0.54%)</title><rect x="117.8" y="149" width="6.4" height="15.0" fill="rgb(231,131,28)" rx="2" ry="2" />
<text  x="120.85" y="159.5" ></text>
</g>
<g >
<title>kernel_init_free_pages (1 samples, 0.54%)</title><rect x="41.7" y="69" width="6.4" height="15.0" fill="rgb(215,131,21)" rx="2" ry="2" />
<text  x="44.72" y="79.5" ></text>
</g>
<g >
<title>load_elf_binary (4 samples, 2.15%)</title><rect x="1164.6" y="149" width="25.4" height="15.0" fill="rgb(207,56,29)" rx="2" ry="2" />
<text  x="1167.62" y="159.5" >l..</text>
</g>
<g >
<title>preempt_schedule_common (156 samples, 83.87%)</title><rect x="130.5" y="117" width="989.7" height="15.0" fill="rgb(225,13,42)" rx="2" ry="2" />
<text  x="133.54" y="127.5" >preempt_schedule_common</text>
</g>
<g >
<title>clear_page_erms (1 samples, 0.54%)</title><rect x="41.7" y="53" width="6.4" height="15.0" fill="rgb(234,158,36)" rx="2" ry="2" />
<text  x="44.72" y="63.5" ></text>
</g>
<g >
<title>all (186 samples, 100%)</title><rect x="10.0" y="293" width="1180.0" height="15.0" fill="rgb(219,148,37)" rx="2" ry="2" />
<text  x="13.00" y="303.5" ></text>
</g>
<g >
<title>do_user_addr_fault (1 samples, 0.54%)</title><rect x="41.7" y="213" width="6.4" height="15.0" fill="rgb(214,26,48)" rx="2" ry="2" />
<text  x="44.72" y="223.5" ></text>
</g>
<g >
<title>psi_task_change (1 samples, 0.54%)</title><rect x="1132.9" y="85" width="6.3" height="15.0" fill="rgb(215,37,21)" rx="2" ry="2" />
<text  x="1135.90" y="95.5" ></text>
</g>
<g >
<title>stop_one_cpu (162 samples, 87.10%)</title><rect x="124.2" y="165" width="1027.7" height="15.0" fill="rgb(226,225,14)" rx="2" ry="2" />
<text  x="127.19" y="175.5" >stop_one_cpu</text>
</g>
<g >
<title>dequeue_task_fair (4 samples, 2.15%)</title><rect x="73.4" y="149" width="25.4" height="15.0" fill="rgb(230,222,29)" rx="2" ry="2" />
<text  x="76.44" y="159.5" >d..</text>
</g>
<g >
<title>preempt_schedule_thunk (156 samples, 83.87%)</title><rect x="130.5" y="133" width="989.7" height="15.0" fill="rgb(205,183,17)" rx="2" ry="2" />
<text  x="133.54" y="143.5" >preempt_schedule_thunk</text>
</g>
<g >
<title>check_cfs_rq_runtime (1 samples, 0.54%)</title><rect x="111.5" y="117" width="6.3" height="15.0" fill="rgb(221,111,19)" rx="2" ry="2" />
<text  x="114.51" y="127.5" ></text>
</g>
<g >
<title>preempt_count_sub (1 samples, 0.54%)</title><rect x="60.8" y="149" width="6.3" height="15.0" fill="rgb(206,67,35)" rx="2" ry="2" />
<text  x="63.75" y="159.5" ></text>
</g>
<g >
<title>[unknown] (5 samples, 2.69%)</title><rect x="10.0" y="261" width="31.7" height="15.0" fill="rgb(224,41,9)" rx="2" ry="2" />
<text  x="13.00" y="271.5" >[u..</text>
</g>
<g >
<title>load_elf_binary (1 samples, 0.54%)</title><rect x="35.4" y="149" width="6.3" height="15.0" fill="rgb(244,132,20)" rx="2" ry="2" />
<text  x="38.38" y="159.5" ></text>
</g>
<g >
<title>preempt_count_add (1 samples, 0.54%)</title><rect x="124.2" y="133" width="6.3" height="15.0" fill="rgb(221,115,16)" rx="2" ry="2" />
<text  x="127.19" y="143.5" ></text>
</g>
<g >
<title>entry_SYSCALL_64 (174 samples, 93.55%)</title><rect x="60.8" y="245" width="1103.8" height="15.0" fill="rgb(220,28,33)" rx="2" ry="2" />
<text  x="63.75" y="255.5" >entry_SYSCALL_64</text>
</g>
<g >
<title>resched_curr (1 samples, 0.54%)</title><rect x="1139.2" y="69" width="6.4" height="15.0" fill="rgb(231,229,47)" rx="2" ry="2" />
<text  x="1142.25" y="79.5" ></text>
</g>
<g >
<title>wake_up_q (2 samples, 1.08%)</title><rect x="1132.9" y="133" width="12.7" height="15.0" fill="rgb(238,139,5)" rx="2" ry="2" />
<text  x="1135.90" y="143.5" ></text>
</g>
<g >
<title>preempt_count_sub (1 samples, 0.54%)</title><rect x="67.1" y="149" width="6.3" height="15.0" fill="rgb(228,187,7)" rx="2" ry="2" />
<text  x="70.10" y="159.5" ></text>
</g>
<g >
<title>__x64_sys_execve (1 samples, 0.54%)</title><rect x="35.4" y="213" width="6.3" height="15.0" fill="rgb(226,153,37)" rx="2" ry="2" />
<text  x="38.38" y="223.5" ></text>
</g>
<g >
<title>check_preempt_curr (1 samples, 0.54%)</title><rect x="1139.2" y="85" width="6.4" height="15.0" fill="rgb(246,219,16)" rx="2" ry="2" />
<text  x="1142.25" y="95.5" ></text>
</g>
<g >
<title>__schedule (156 samples, 83.87%)</title><rect x="130.5" y="101" width="989.7" height="15.0" fill="rgb(212,199,29)" rx="2" ry="2" />
<text  x="133.54" y="111.5" >__schedule</text>
</g>
<g >
<title>move_page_tables (1 samples, 0.54%)</title><rect x="35.4" y="101" width="6.3" height="15.0" fill="rgb(222,229,37)" rx="2" ry="2" />
<text  x="38.38" y="111.5" ></text>
</g>
<g >
<title>[libhwloc.so.15.2.0] (2 samples, 1.08%)</title><rect x="10.0" y="245" width="12.7" height="15.0" fill="rgb(238,39,2)" rx="2" ry="2" />
<text  x="13.00" y="255.5" ></text>
</g>
<g >
<title>sched_setaffinity@@GLIBC_2.3.4 (174 samples, 93.55%)</title><rect x="60.8" y="261" width="1103.8" height="15.0" fill="rgb(218,80,28)" rx="2" ry="2" />
<text  x="63.75" y="271.5" >sched_setaffinity@@GLIBC_2.3.4</text>
</g>
<g >
<title>preempt_count_sub (1 samples, 0.54%)</title><rect x="92.5" y="69" width="6.3" height="15.0" fill="rgb(243,106,25)" rx="2" ry="2" />
<text  x="95.47" y="79.5" ></text>
</g>
<g >
<title>psi_group_change (1 samples, 0.54%)</title><rect x="1132.9" y="69" width="6.3" height="15.0" fill="rgb(223,68,17)" rx="2" ry="2" />
<text  x="1135.90" y="79.5" ></text>
</g>
<g >
<title>native_write_msr (4 samples, 2.15%)</title><rect x="1164.6" y="85" width="25.4" height="15.0" fill="rgb(205,171,29)" rx="2" ry="2" />
<text  x="1167.62" y="95.5" >n..</text>
</g>
<g >
<title>update_load_avg (1 samples, 0.54%)</title><rect x="117.8" y="133" width="6.4" height="15.0" fill="rgb(246,102,49)" rx="2" ry="2" />
<text  x="120.85" y="143.5" ></text>
</g>
<g >
<title>update_curr (1 samples, 0.54%)</title><rect x="92.5" y="117" width="6.3" height="15.0" fill="rgb(243,19,44)" rx="2" ry="2" />
<text  x="95.47" y="127.5" ></text>
</g>
<g >
<title>dequeue_entity (4 samples, 2.15%)</title><rect x="73.4" y="133" width="25.4" height="15.0" fill="rgb(213,42,3)" rx="2" ry="2" />
<text  x="76.44" y="143.5" >d..</text>
</g>
<g >
<title>_raw_spin_unlock_irqrestore (1 samples, 0.54%)</title><rect x="92.5" y="85" width="6.3" height="15.0" fill="rgb(212,47,3)" rx="2" ry="2" />
<text  x="95.47" y="95.5" ></text>
</g>
<g >
<title>_int_free (1 samples, 0.54%)</title><rect x="29.0" y="245" width="6.4" height="15.0" fill="rgb(220,229,51)" rx="2" ry="2" />
<text  x="32.03" y="255.5" ></text>
</g>
<g >
<title>sched_setaffinity (173 samples, 93.01%)</title><rect x="60.8" y="197" width="1097.5" height="15.0" fill="rgb(219,11,35)" rx="2" ry="2" />
<text  x="63.75" y="207.5" >sched_setaffinity</text>
</g>
</g>
</svg>
