<?xml version="1.0" standalone="no"?>
<!DOCTYPE svg PUBLIC "-//W3C//DTD SVG 1.1//EN" "http://www.w3.org/Graphics/SVG/1.1/DTD/svg11.dtd">
<svg version="1.1" width="1200" height="342" onload="init(evt)" viewBox="0 0 1200 342" xmlns="http://www.w3.org/2000/svg" xmlns:xlink="http://www.w3.org/1999/xlink">
<!-- Flame graph stack visualization. See https://github.com/brendangregg/FlameGraph for latest version, and http://www.brendangregg.com/flamegraphs.html for examples. -->
<!-- NOTES:  -->
<defs>
	<linearGradient id="background" y1="0" y2="1" x1="0" x2="0" >
		<stop stop-color="#eeeeee" offset="5%" />
		<stop stop-color="#eeeeb0" offset="95%" />
	</linearGradient>
</defs>
<style type="text/css">
	text { font-family:Verdana; font-size:12px; fill:rgb(0,0,0); }
	#search, #ignorecase { opacity:0.1; cursor:pointer; }
	#search:hover, #search.show, #ignorecase:hover, #ignorecase.show { opacity:1; }
	#subtitle { text-anchor:middle; font-color:rgb(160,160,160); }
	#title { text-anchor:middle; font-size:17px}
	#unzoom { cursor:pointer; }
	#frames > *:hover { stroke:black; stroke-width:0.5; cursor:pointer; }
	.hide { display:none; }
	.parent { opacity:0.5; }
</style>
<script type="text/ecmascript">
<![CDATA[
	"use strict";
	var details, searchbtn, unzoombtn, matchedtxt, svg, searching, currentSearchTerm, ignorecase, ignorecaseBtn;
	function init(evt) {
		details = document.getElementById("details").firstChild;
		searchbtn = document.getElementById("search");
		ignorecaseBtn = document.getElementById("ignorecase");
		unzoombtn = document.getElementById("unzoom");
		matchedtxt = document.getElementById("matched");
		svg = document.getElementsByTagName("svg")[0];
		searching = 0;
		currentSearchTerm = null;
	}

	window.addEventListener("click", function(e) {
		var target = find_group(e.target);
		if (target) {
			if (target.nodeName == "a") {
				if (e.ctrlKey === false) return;
				e.preventDefault();
			}
			if (target.classList.contains("parent")) unzoom();
			zoom(target);
		}
		else if (e.target.id == "unzoom") unzoom();
		else if (e.target.id == "search") search_prompt();
		else if (e.target.id == "ignorecase") toggle_ignorecase();
	}, false)

	// mouse-over for info
	// show
	window.addEventListener("mouseover", function(e) {
		var target = find_group(e.target);
		if (target) details.nodeValue = "Function: " + g_to_text(target);
	}, false)

	// clear
	window.addEventListener("mouseout", function(e) {
		var target = find_group(e.target);
		if (target) details.nodeValue = ' ';
	}, false)

	// ctrl-F for search
	window.addEventListener("keydown",function (e) {
		if (e.keyCode === 114 || (e.ctrlKey && e.keyCode === 70)) {
			e.preventDefault();
			search_prompt();
		}
	}, false)

	// ctrl-I to toggle case-sensitive search
	window.addEventListener("keydown",function (e) {
		if (e.ctrlKey && e.keyCode === 73) {
			e.preventDefault();
			toggle_ignorecase();
		}
	}, false)

	// functions
	function find_child(node, selector) {
		var children = node.querySelectorAll(selector);
		if (children.length) return children[0];
		return;
	}
	function find_group(node) {
		var parent = node.parentElement;
		if (!parent) return;
		if (parent.id == "frames") return node;
		return find_group(parent);
	}
	function orig_save(e, attr, val) {
		if (e.attributes["_orig_" + attr] != undefined) return;
		if (e.attributes[attr] == undefined) return;
		if (val == undefined) val = e.attributes[attr].value;
		e.setAttribute("_orig_" + attr, val);
	}
	function orig_load(e, attr) {
		if (e.attributes["_orig_"+attr] == undefined) return;
		e.attributes[attr].value = e.attributes["_orig_" + attr].value;
		e.removeAttribute("_orig_"+attr);
	}
	function g_to_text(e) {
		var text = find_child(e, "title").firstChild.nodeValue;
		return (text)
	}
	function g_to_func(e) {
		var func = g_to_text(e);
		// if there's any manipulation we want to do to the function
		// name before it's searched, do it here before returning.
		return (func);
	}
	function update_text(e) {
		var r = find_child(e, "rect");
		var t = find_child(e, "text");
		var w = parseFloat(r.attributes.width.value) -3;
		var txt = find_child(e, "title").textContent.replace(/\([^(]*\)$/,"");
		t.attributes.x.value = parseFloat(r.attributes.x.value) + 3;

		// Smaller than this size won't fit anything
		if (w < 2 * 12 * 0.59) {
			t.textContent = "";
			return;
		}

		t.textContent = txt;
		// Fit in full text width
		if (/^ *$/.test(txt) || t.getSubStringLength(0, txt.length) < w)
			return;

		for (var x = txt.length - 2; x > 0; x--) {
			if (t.getSubStringLength(0, x + 2) <= w) {
				t.textContent = txt.substring(0, x) + "..";
				return;
			}
		}
		t.textContent = "";
	}

	// zoom
	function zoom_reset(e) {
		if (e.attributes != undefined) {
			orig_load(e, "x");
			orig_load(e, "width");
		}
		if (e.childNodes == undefined) return;
		for (var i = 0, c = e.childNodes; i < c.length; i++) {
			zoom_reset(c[i]);
		}
	}
	function zoom_child(e, x, ratio) {
		if (e.attributes != undefined) {
			if (e.attributes.x != undefined) {
				orig_save(e, "x");
				e.attributes.x.value = (parseFloat(e.attributes.x.value) - x - 10) * ratio + 10;
				if (e.tagName == "text")
					e.attributes.x.value = find_child(e.parentNode, "rect[x]").attributes.x.value + 3;
			}
			if (e.attributes.width != undefined) {
				orig_save(e, "width");
				e.attributes.width.value = parseFloat(e.attributes.width.value) * ratio;
			}
		}

		if (e.childNodes == undefined) return;
		for (var i = 0, c = e.childNodes; i < c.length; i++) {
			zoom_child(c[i], x - 10, ratio);
		}
	}
	function zoom_parent(e) {
		if (e.attributes) {
			if (e.attributes.x != undefined) {
				orig_save(e, "x");
				e.attributes.x.value = 10;
			}
			if (e.attributes.width != undefined) {
				orig_save(e, "width");
				e.attributes.width.value = parseInt(svg.width.baseVal.value) - (10 * 2);
			}
		}
		if (e.childNodes == undefined) return;
		for (var i = 0, c = e.childNodes; i < c.length; i++) {
			zoom_parent(c[i]);
		}
	}
	function zoom(node) {
		var attr = find_child(node, "rect").attributes;
		var width = parseFloat(attr.width.value);
		var xmin = parseFloat(attr.x.value);
		var xmax = parseFloat(xmin + width);
		var ymin = parseFloat(attr.y.value);
		var ratio = (svg.width.baseVal.value - 2 * 10) / width;

		// XXX: Workaround for JavaScript float issues (fix me)
		var fudge = 0.0001;

		unzoombtn.classList.remove("hide");

		var el = document.getElementById("frames").children;
		for (var i = 0; i < el.length; i++) {
			var e = el[i];
			var a = find_child(e, "rect").attributes;
			var ex = parseFloat(a.x.value);
			var ew = parseFloat(a.width.value);
			var upstack;
			// Is it an ancestor
			if (0 == 0) {
				upstack = parseFloat(a.y.value) > ymin;
			} else {
				upstack = parseFloat(a.y.value) < ymin;
			}
			if (upstack) {
				// Direct ancestor
				if (ex <= xmin && (ex+ew+fudge) >= xmax) {
					e.classList.add("parent");
					zoom_parent(e);
					update_text(e);
				}
				// not in current path
				else
					e.classList.add("hide");
			}
			// Children maybe
			else {
				// no common path
				if (ex < xmin || ex + fudge >= xmax) {
					e.classList.add("hide");
				}
				else {
					zoom_child(e, xmin, ratio);
					update_text(e);
				}
			}
		}
		search();
	}
	function unzoom() {
		unzoombtn.classList.add("hide");
		var el = document.getElementById("frames").children;
		for(var i = 0; i < el.length; i++) {
			el[i].classList.remove("parent");
			el[i].classList.remove("hide");
			zoom_reset(el[i]);
			update_text(el[i]);
		}
		search();
	}

	// search
	function toggle_ignorecase() {
		ignorecase = !ignorecase;
		if (ignorecase) {
			ignorecaseBtn.classList.add("show");
		} else {
			ignorecaseBtn.classList.remove("show");
		}
		reset_search();
		search();
	}
	function reset_search() {
		var el = document.querySelectorAll("#frames rect");
		for (var i = 0; i < el.length; i++) {
			orig_load(el[i], "fill")
		}
	}
	function search_prompt() {
		if (!searching) {
			var term = prompt("Enter a search term (regexp " +
			    "allowed, eg: ^ext4_)"
			    + (ignorecase ? ", ignoring case" : "")
			    + "\nPress Ctrl-i to toggle case sensitivity", "");
			if (term != null) {
				currentSearchTerm = term;
				search();
			}
		} else {
			reset_search();
			searching = 0;
			currentSearchTerm = null;
			searchbtn.classList.remove("show");
			searchbtn.firstChild.nodeValue = "Search"
			matchedtxt.classList.add("hide");
			matchedtxt.firstChild.nodeValue = ""
		}
	}
	function search(term) {
		if (currentSearchTerm === null) return;
		var term = currentSearchTerm;

		var re = new RegExp(term, ignorecase ? 'i' : '');
		var el = document.getElementById("frames").children;
		var matches = new Object();
		var maxwidth = 0;
		for (var i = 0; i < el.length; i++) {
			var e = el[i];
			var func = g_to_func(e);
			var rect = find_child(e, "rect");
			if (func == null || rect == null)
				continue;

			// Save max width. Only works as we have a root frame
			var w = parseFloat(rect.attributes.width.value);
			if (w > maxwidth)
				maxwidth = w;

			if (func.match(re)) {
				// highlight
				var x = parseFloat(rect.attributes.x.value);
				orig_save(rect, "fill");
				rect.attributes.fill.value = "rgb(230,0,230)";

				// remember matches
				if (matches[x] == undefined) {
					matches[x] = w;
				} else {
					if (w > matches[x]) {
						// overwrite with parent
						matches[x] = w;
					}
				}
				searching = 1;
			}
		}
		if (!searching)
			return;

		searchbtn.classList.add("show");
		searchbtn.firstChild.nodeValue = "Reset Search";

		// calculate percent matched, excluding vertical overlap
		var count = 0;
		var lastx = -1;
		var lastw = 0;
		var keys = Array();
		for (k in matches) {
			if (matches.hasOwnProperty(k))
				keys.push(k);
		}
		// sort the matched frames by their x location
		// ascending, then width descending
		keys.sort(function(a, b){
			return a - b;
		});
		// Step through frames saving only the biggest bottom-up frames
		// thanks to the sort order. This relies on the tree property
		// where children are always smaller than their parents.
		var fudge = 0.0001;	// JavaScript floating point
		for (var k in keys) {
			var x = parseFloat(keys[k]);
			var w = matches[keys[k]];
			if (x >= lastx + lastw - fudge) {
				count += w;
				lastx = x;
				lastw = w;
			}
		}
		// display matched percent
		matchedtxt.classList.remove("hide");
		var pct = 100 * count / maxwidth;
		if (pct != 100) pct = pct.toFixed(1)
		matchedtxt.firstChild.nodeValue = "Matched: " + pct + "%";
	}
]]>
</script>
<rect x="0.0" y="0" width="1200.0" height="342.0" fill="url(#background)"  />
<text id="title" x="600.00" y="24" >Flame Graph</text>
<text id="details" x="10.00" y="325" > </text>
<text id="unzoom" x="10.00" y="24" class="hide">Reset Zoom</text>
<text id="search" x="1090.00" y="24" >Search</text>
<text id="ignorecase" x="1174.00" y="24" >ic</text>
<text id="matched" x="1090.00" y="325" > </text>
<g id="frames">
<g >
<title>sched_setaffinity@@GLIBC_2.3.4 (174 samples, 93.55%)</title><rect x="60.8" y="261" width="1103.8" height="15.0" fill="rgb(224,140,2)" rx="2" ry="2" />
<text  x="63.75" y="271.5" >sched_setaffinity@@GLIBC_2.3.4</text>
</g>
<g >
<title>wake_up_q (3 samples, 1.61%)</title><rect x="1132.9" y="133" width="19.0" height="15.0" fill="rgb(237,42,25)" rx="2" ry="2" />
<text  x="1135.90" y="143.5" ></text>
</g>
<g >
<title>__perf_event_task_sched_out (1 samples, 0.54%)</title><rect x="130.5" y="85" width="6.4" height="15.0" fill="rgb(246,155,10)" rx="2" ry="2" />
<text  x="133.54" y="95.5" ></text>
</g>
<g >
<title>load_elf_binary (4 samples, 2.15%)</title><rect x="1164.6" y="149" width="25.4" height="15.0" fill="rgb(217,34,43)" rx="2" ry="2" />
<text  x="1167.62" y="159.5" >l..</text>
</g>
<g >
<title>do_syscall_64 (4 samples, 2.15%)</title><rect x="1164.6" y="229" width="25.4" height="15.0" fill="rgb(252,119,39)" rx="2" ry="2" />
<text  x="1167.62" y="239.5" >d..</text>
</g>
<g >
<title>[libhwloc.so.15.2.0] (2 samples, 1.08%)</title><rect x="10.0" y="245" width="12.7" height="15.0" fill="rgb(235,152,30)" rx="2" ry="2" />
<text  x="13.00" y="255.5" ></text>
</g>
<g >
<title>setup_arg_pages (1 samples, 0.54%)</title><rect x="41.7" y="133" width="6.4" height="15.0" fill="rgb(248,43,12)" rx="2" ry="2" />
<text  x="44.72" y="143.5" ></text>
</g>
<g >
<title>sock_sendmsg (1 samples, 0.54%)</title><rect x="22.7" y="165" width="6.3" height="15.0" fill="rgb(234,73,10)" rx="2" ry="2" />
<text  x="25.69" y="175.5" ></text>
</g>
<g >
<title>entry_SYSCALL_64 (1 samples, 0.54%)</title><rect x="41.7" y="245" width="6.4" height="15.0" fill="rgb(207,100,39)" rx="2" ry="2" />
<text  x="44.72" y="255.5" ></text>
</g>
<g >
<title>perf_event_exec (4 samples, 2.15%)</title><rect x="1164.6" y="117" width="25.4" height="15.0" fill="rgb(230,185,13)" rx="2" ry="2" />
<text  x="1167.62" y="127.5" >p..</text>
</g>
<g >
<title>_dl_relocate_object (1 samples, 0.54%)</title><rect x="35.4" y="213" width="6.3" height="15.0" fill="rgb(243,28,4)" rx="2" ry="2" />
<text  x="38.38" y="223.5" ></text>
</g>
<g >
<title>try_to_wake_up (3 samples, 1.61%)</title><rect x="1132.9" y="117" width="19.0" height="15.0" fill="rgb(222,64,17)" rx="2" ry="2" />
<text  x="1135.90" y="127.5" ></text>
</g>
<g >
<title>preempt_count_sub (1 samples, 0.54%)</title><rect x="86.1" y="133" width="6.4" height="15.0" fill="rgb(234,181,34)" rx="2" ry="2" />
<text  x="89.13" y="143.5" ></text>
</g>
<g >
<title>update_rq_clock (1 samples, 0.54%)</title><rect x="1151.9" y="165" width="6.4" height="15.0" fill="rgb(213,86,5)" rx="2" ry="2" />
<text  x="1154.94" y="175.5" ></text>
</g>
<g >
<title>__update_load_avg_se (1 samples, 0.54%)</title><rect x="67.1" y="101" width="6.3" height="15.0" fill="rgb(212,153,31)" rx="2" ry="2" />
<text  x="70.10" y="111.5" ></text>
</g>
<g >
<title>[unknown] (6 samples, 3.23%)</title><rect x="10.0" y="261" width="38.1" height="15.0" fill="rgb(218,171,17)" rx="2" ry="2" />
<text  x="13.00" y="271.5" >[un..</text>
</g>
<g >
<title>__set_cpus_allowed_ptr (172 samples, 92.47%)</title><rect x="67.1" y="181" width="1091.2" height="15.0" fill="rgb(246,52,22)" rx="2" ry="2" />
<text  x="70.10" y="191.5" >__set_cpus_allowed_ptr</text>
</g>
<g >
<title>_raw_spin_lock_irqsave (1 samples, 0.54%)</title><rect x="79.8" y="133" width="6.3" height="15.0" fill="rgb(232,215,0)" rx="2" ry="2" />
<text  x="82.78" y="143.5" ></text>
</g>
<g >
<title>do_syscall_64 (1 samples, 0.54%)</title><rect x="41.7" y="229" width="6.4" height="15.0" fill="rgb(211,71,47)" rx="2" ry="2" />
<text  x="44.72" y="239.5" ></text>
</g>
<g >
<title>do_execve (1 samples, 0.54%)</title><rect x="41.7" y="197" width="6.4" height="15.0" fill="rgb(243,3,52)" rx="2" ry="2" />
<text  x="44.72" y="207.5" ></text>
</g>
<g >
<title>perf (4 samples, 2.15%)</title><rect x="1164.6" y="277" width="25.4" height="15.0" fill="rgb(218,153,5)" rx="2" ry="2" />
<text  x="1167.62" y="287.5" >p..</text>
</g>
<g >
<title>tcp_sendmsg (1 samples, 0.54%)</title><rect x="22.7" y="149" width="6.3" height="15.0" fill="rgb(248,125,26)" rx="2" ry="2" />
<text  x="25.69" y="159.5" ></text>
</g>
<g >
<title>__sys_sendto (1 samples, 0.54%)</title><rect x="22.7" y="181" width="6.3" height="15.0" fill="rgb(243,115,29)" rx="2" ry="2" />
<text  x="25.69" y="191.5" ></text>
</g>
<g >
<title>search_binary_handler.part.0 (4 samples, 2.15%)</title><rect x="1164.6" y="165" width="25.4" height="15.0" fill="rgb(209,174,26)" rx="2" ry="2" />
<text  x="1167.62" y="175.5" >s..</text>
</g>
<g >
<title>cpuset_cpus_allowed (1 samples, 0.54%)</title><rect x="1158.3" y="181" width="6.3" height="15.0" fill="rgb(209,139,46)" rx="2" ry="2" />
<text  x="1161.28" y="191.5" ></text>
</g>
<g >
<title>psi_group_change (1 samples, 0.54%)</title><rect x="1132.9" y="69" width="6.3" height="15.0" fill="rgb(254,65,31)" rx="2" ry="2" />
<text  x="1135.90" y="79.5" ></text>
</g>
<g >
<title>dl_open_worker (1 samples, 0.54%)</title><rect x="35.4" y="229" width="6.3" height="15.0" fill="rgb(211,78,45)" rx="2" ry="2" />
<text  x="38.38" y="239.5" ></text>
</g>
<g >
<title>all (186 samples, 100%)</title><rect x="10.0" y="293" width="1180.0" height="15.0" fill="rgb(206,156,20)" rx="2" ry="2" />
<text  x="13.00" y="303.5" ></text>
</g>
<g >
<title>put_prev_task_fair (1 samples, 0.54%)</title><rect x="1126.6" y="85" width="6.3" height="15.0" fill="rgb(213,33,7)" rx="2" ry="2" />
<text  x="1129.56" y="95.5" ></text>
</g>
<g >
<title>entry_SYSCALL_64 (4 samples, 2.15%)</title><rect x="1164.6" y="245" width="25.4" height="15.0" fill="rgb(239,79,48)" rx="2" ry="2" />
<text  x="1167.62" y="255.5" >e..</text>
</g>
<g >
<title>__x86_indirect_thunk_rax (1 samples, 0.54%)</title><rect x="60.8" y="245" width="6.3" height="15.0" fill="rgb(218,30,44)" rx="2" ry="2" />
<text  x="63.75" y="255.5" ></text>
</g>
<g >
<title>enqueue_task_fair (1 samples, 0.54%)</title><rect x="67.1" y="149" width="6.3" height="15.0" fill="rgb(237,113,5)" rx="2" ry="2" />
<text  x="70.10" y="159.5" ></text>
</g>
<g >
<title>entry_SYSCALL_64 (1 samples, 0.54%)</title><rect x="22.7" y="229" width="6.3" height="15.0" fill="rgb(206,69,23)" rx="2" ry="2" />
<text  x="25.69" y="239.5" ></text>
</g>
<g >
<title>enqueue_task_stop (1 samples, 0.54%)</title><rect x="1139.2" y="101" width="6.4" height="15.0" fill="rgb(224,123,6)" rx="2" ry="2" />
<text  x="1142.25" y="111.5" ></text>
</g>
<g >
<title>lobsters (182 samples, 97.85%)</title><rect x="10.0" y="277" width="1154.6" height="15.0" fill="rgb(249,38,6)" rx="2" ry="2" />
<text  x="13.00" y="287.5" >lobsters</text>
</g>
<g >
<title>__x64_sys_sched_setaffinity (173 samples, 93.01%)</title><rect x="67.1" y="213" width="1097.5" height="15.0" fill="rgb(232,216,47)" rx="2" ry="2" />
<text  x="70.10" y="223.5" >__x64_sys_sched_setaffinity</text>
</g>
<g >
<title>tcp_sendmsg_locked (1 samples, 0.54%)</title><rect x="22.7" y="133" width="6.3" height="15.0" fill="rgb(251,10,23)" rx="2" ry="2" />
<text  x="25.69" y="143.5" ></text>
</g>
<g >
<title>update_curr (1 samples, 0.54%)</title><rect x="1126.6" y="53" width="6.3" height="15.0" fill="rgb(248,5,3)" rx="2" ry="2" />
<text  x="1129.56" y="63.5" ></text>
</g>
<g >
<title>finish_task_switch (156 samples, 83.87%)</title><rect x="136.9" y="85" width="989.7" height="15.0" fill="rgb(217,67,5)" rx="2" ry="2" />
<text  x="139.88" y="95.5" >finish_task_switch</text>
</g>
<g >
<title>do_syscall_64 (1 samples, 0.54%)</title><rect x="22.7" y="213" width="6.3" height="15.0" fill="rgb(222,140,51)" rx="2" ry="2" />
<text  x="25.69" y="223.5" ></text>
</g>
<g >
<title>hrtick_update (1 samples, 0.54%)</title><rect x="73.4" y="149" width="6.4" height="15.0" fill="rgb(220,75,46)" rx="2" ry="2" />
<text  x="76.44" y="159.5" ></text>
</g>
<g >
<title>__vsnprintf_internal (1 samples, 0.54%)</title><rect x="29.0" y="245" width="6.4" height="15.0" fill="rgb(210,76,3)" rx="2" ry="2" />
<text  x="32.03" y="255.5" ></text>
</g>
<g >
<title>__libc_send (1 samples, 0.54%)</title><rect x="22.7" y="245" width="6.3" height="15.0" fill="rgb(235,226,27)" rx="2" ry="2" />
<text  x="25.69" y="255.5" ></text>
</g>
<g >
<title>cpu_stop_queue_work (169 samples, 90.86%)</title><rect x="79.8" y="149" width="1072.1" height="15.0" fill="rgb(207,214,2)" rx="2" ry="2" />
<text  x="82.78" y="159.5" >cpu_stop_queue_work</text>
</g>
<g >
<title>__x64_sys_sendto (1 samples, 0.54%)</title><rect x="22.7" y="197" width="6.3" height="15.0" fill="rgb(249,49,36)" rx="2" ry="2" />
<text  x="25.69" y="207.5" ></text>
</g>
<g >
<title>sk_stream_alloc_skb (1 samples, 0.54%)</title><rect x="22.7" y="117" width="6.3" height="15.0" fill="rgb(224,213,16)" rx="2" ry="2" />
<text  x="25.69" y="127.5" ></text>
</g>
<g >
<title>update_load_avg (1 samples, 0.54%)</title><rect x="67.1" y="117" width="6.3" height="15.0" fill="rgb(230,94,22)" rx="2" ry="2" />
<text  x="70.10" y="127.5" ></text>
</g>
<g >
<title>sched_clock_cpu (1 samples, 0.54%)</title><rect x="1145.6" y="85" width="6.3" height="15.0" fill="rgb(223,30,50)" rx="2" ry="2" />
<text  x="1148.59" y="95.5" ></text>
</g>
<g >
<title>intel_pmu_disable_all (1 samples, 0.54%)</title><rect x="130.5" y="53" width="6.4" height="15.0" fill="rgb(251,132,42)" rx="2" ry="2" />
<text  x="133.54" y="63.5" ></text>
</g>
<g >
<title>_dl_catch_exception (1 samples, 0.54%)</title><rect x="35.4" y="245" width="6.3" height="15.0" fill="rgb(236,114,35)" rx="2" ry="2" />
<text  x="38.38" y="255.5" ></text>
</g>
<g >
<title>preempt_schedule (1 samples, 0.54%)</title><rect x="92.5" y="117" width="6.3" height="15.0" fill="rgb(219,18,9)" rx="2" ry="2" />
<text  x="95.47" y="127.5" ></text>
</g>
<g >
<title>setup_new_exec (4 samples, 2.15%)</title><rect x="1164.6" y="133" width="25.4" height="15.0" fill="rgb(218,48,24)" rx="2" ry="2" />
<text  x="1167.62" y="143.5" >s..</text>
</g>
<g >
<title>__x64_sys_execve (1 samples, 0.54%)</title><rect x="41.7" y="213" width="6.4" height="15.0" fill="rgb(241,150,23)" rx="2" ry="2" />
<text  x="44.72" y="223.5" ></text>
</g>
<g >
<title>update_rq_clock (1 samples, 0.54%)</title><rect x="1145.6" y="101" width="6.3" height="15.0" fill="rgb(254,195,25)" rx="2" ry="2" />
<text  x="1148.59" y="111.5" ></text>
</g>
<g >
<title>__schedule (163 samples, 87.63%)</title><rect x="98.8" y="101" width="1034.1" height="15.0" fill="rgb(212,83,30)" rx="2" ry="2" />
<text  x="101.82" y="111.5" >__schedule</text>
</g>
<g >
<title>__do_execve_file (4 samples, 2.15%)</title><rect x="1164.6" y="181" width="25.4" height="15.0" fill="rgb(227,195,52)" rx="2" ry="2" />
<text  x="1167.62" y="191.5" >_..</text>
</g>
<g >
<title>enqueue_entity (1 samples, 0.54%)</title><rect x="67.1" y="133" width="6.3" height="15.0" fill="rgb(252,112,28)" rx="2" ry="2" />
<text  x="70.10" y="143.5" ></text>
</g>
<g >
<title>native_sched_clock (1 samples, 0.54%)</title><rect x="1145.6" y="53" width="6.3" height="15.0" fill="rgb(212,77,25)" rx="2" ry="2" />
<text  x="1148.59" y="63.5" ></text>
</g>
<g >
<title>do_execve (4 samples, 2.15%)</title><rect x="1164.6" y="197" width="25.4" height="15.0" fill="rgb(230,105,32)" rx="2" ry="2" />
<text  x="1167.62" y="207.5" >d..</text>
</g>
<g >
<title>sched_clock (1 samples, 0.54%)</title><rect x="1145.6" y="69" width="6.3" height="15.0" fill="rgb(246,224,12)" rx="2" ry="2" />
<text  x="1148.59" y="79.5" ></text>
</g>
<g >
<title>__vfprintf_internal (1 samples, 0.54%)</title><rect x="29.0" y="229" width="6.4" height="15.0" fill="rgb(250,71,11)" rx="2" ry="2" />
<text  x="32.03" y="239.5" ></text>
</g>
<g >
<title>load_elf_binary (1 samples, 0.54%)</title><rect x="41.7" y="149" width="6.4" height="15.0" fill="rgb(226,64,35)" rx="2" ry="2" />
<text  x="44.72" y="159.5" ></text>
</g>
<g >
<title>__intel_pmu_enable_all.constprop.0 (156 samples, 83.87%)</title><rect x="136.9" y="53" width="989.7" height="15.0" fill="rgb(206,79,14)" rx="2" ry="2" />
<text  x="139.88" y="63.5" >__intel_pmu_enable_all.constprop.0</text>
</g>
<g >
<title>psi_task_change (1 samples, 0.54%)</title><rect x="1132.9" y="85" width="6.3" height="15.0" fill="rgb(205,83,15)" rx="2" ry="2" />
<text  x="1135.90" y="95.5" ></text>
</g>
<g >
<title>search_binary_handler.part.0 (1 samples, 0.54%)</title><rect x="41.7" y="165" width="6.4" height="15.0" fill="rgb(247,55,44)" rx="2" ry="2" />
<text  x="44.72" y="175.5" ></text>
</g>
<g >
<title>_raw_spin_lock_irqsave (1 samples, 0.54%)</title><rect x="1158.3" y="165" width="6.3" height="15.0" fill="rgb(238,162,54)" rx="2" ry="2" />
<text  x="1161.28" y="175.5" ></text>
</g>
<g >
<title>[unknown] (4 samples, 2.15%)</title><rect x="1164.6" y="261" width="25.4" height="15.0" fill="rgb(220,172,39)" rx="2" ry="2" />
<text  x="1167.62" y="271.5" >[..</text>
</g>
<g >
<title>preempt_schedule_common (163 samples, 87.63%)</title><rect x="98.8" y="117" width="1034.1" height="15.0" fill="rgb(215,55,18)" rx="2" ry="2" />
<text  x="101.82" y="127.5" >preempt_schedule_common</text>
</g>
<g >
<title>do_set_cpus_allowed (2 samples, 1.08%)</title><rect x="67.1" y="165" width="12.7" height="15.0" fill="rgb(244,70,25)" rx="2" ry="2" />
<text  x="70.10" y="175.5" ></text>
</g>
<g >
<title>hwloc_linux_set_tid_cpubind (2 samples, 1.08%)</title><rect x="48.1" y="261" width="12.7" height="15.0" fill="rgb(233,19,27)" rx="2" ry="2" />
<text  x="51.06" y="271.5" ></text>
</g>
<g >
<title>__perf_event_task_sched_in (156 samples, 83.87%)</title><rect x="136.9" y="69" width="989.7" height="15.0" fill="rgb(233,101,10)" rx="2" ry="2" />
<text  x="139.88" y="79.5" >__perf_event_task_sched_in</text>
</g>
<g >
<title>ctx_sched_out (1 samples, 0.54%)</title><rect x="130.5" y="69" width="6.4" height="15.0" fill="rgb(230,51,0)" rx="2" ry="2" />
<text  x="133.54" y="79.5" ></text>
</g>
<g >
<title>__intel_pmu_enable_all.constprop.0 (4 samples, 2.15%)</title><rect x="1164.6" y="101" width="25.4" height="15.0" fill="rgb(210,196,17)" rx="2" ry="2" />
<text  x="1167.62" y="111.5" >_..</text>
</g>
<g >
<title>expand_downwards (1 samples, 0.54%)</title><rect x="41.7" y="117" width="6.4" height="15.0" fill="rgb(249,108,16)" rx="2" ry="2" />
<text  x="44.72" y="127.5" ></text>
</g>
<g >
<title>stop_one_cpu (169 samples, 90.86%)</title><rect x="79.8" y="165" width="1072.1" height="15.0" fill="rgb(241,226,50)" rx="2" ry="2" />
<text  x="82.78" y="175.5" >stop_one_cpu</text>
</g>
<g >
<title>preempt_count_add (1 samples, 0.54%)</title><rect x="79.8" y="117" width="6.3" height="15.0" fill="rgb(224,139,2)" rx="2" ry="2" />
<text  x="82.78" y="127.5" ></text>
</g>
<g >
<title>__x64_sys_execve (4 samples, 2.15%)</title><rect x="1164.6" y="213" width="25.4" height="15.0" fill="rgb(213,113,50)" rx="2" ry="2" />
<text  x="1167.62" y="223.5" >_..</text>
</g>
<g >
<title>__do_execve_file (1 samples, 0.54%)</title><rect x="41.7" y="181" width="6.4" height="15.0" fill="rgb(244,185,37)" rx="2" ry="2" />
<text  x="44.72" y="191.5" ></text>
</g>
<g >
<title>__alloc_skb (1 samples, 0.54%)</title><rect x="22.7" y="101" width="6.3" height="15.0" fill="rgb(213,144,6)" rx="2" ry="2" />
<text  x="25.69" y="111.5" ></text>
</g>
<g >
<title>sched_setaffinity (173 samples, 93.01%)</title><rect x="67.1" y="197" width="1097.5" height="15.0" fill="rgb(245,115,34)" rx="2" ry="2" />
<text  x="70.10" y="207.5" >sched_setaffinity</text>
</g>
<g >
<title>preempt_schedule_thunk (164 samples, 88.17%)</title><rect x="92.5" y="133" width="1040.4" height="15.0" fill="rgb(225,5,21)" rx="2" ry="2" />
<text  x="95.47" y="143.5" >preempt_schedule_thunk</text>
</g>
<g >
<title>put_prev_entity (1 samples, 0.54%)</title><rect x="1126.6" y="69" width="6.3" height="15.0" fill="rgb(225,44,32)" rx="2" ry="2" />
<text  x="1129.56" y="79.5" ></text>
</g>
<g >
<title>entry_SYSCALL_64 (173 samples, 93.01%)</title><rect x="67.1" y="245" width="1097.5" height="15.0" fill="rgb(239,223,50)" rx="2" ry="2" />
<text  x="70.10" y="255.5" >entry_SYSCALL_64</text>
</g>
<g >
<title>native_write_msr (4 samples, 2.15%)</title><rect x="1164.6" y="85" width="25.4" height="15.0" fill="rgb(237,24,34)" rx="2" ry="2" />
<text  x="1167.62" y="95.5" >n..</text>
</g>
<g >
<title>do_syscall_64 (173 samples, 93.01%)</title><rect x="67.1" y="229" width="1097.5" height="15.0" fill="rgb(245,212,33)" rx="2" ry="2" />
<text  x="70.10" y="239.5" >do_syscall_64</text>
</g>
<g >
<title>enqueue_task (1 samples, 0.54%)</title><rect x="1132.9" y="101" width="6.3" height="15.0" fill="rgb(248,224,44)" rx="2" ry="2" />
<text  x="1135.90" y="111.5" ></text>
</g>
<g >
<title>native_write_msr (156 samples, 83.87%)</title><rect x="136.9" y="37" width="989.7" height="15.0" fill="rgb(253,167,5)" rx="2" ry="2" />
<text  x="139.88" y="47.5" >native_write_msr</text>
</g>
</g>
</svg>
